<svg xmlns="http://www.w3.org/2000/svg" width="37" height="38" viewBox="0 0 37 38">
    <g fill="none" fill-rule="evenodd">
        <g>
            <g>
                <g>
                    <g>
                        <path fill="#FFF" d="M35.257 26.84L18.432 35.253 1.607 26.84 1.607 8.145 18.432 2.538 35.257 8.145z" transform="translate(-852 -2154) translate(128 2117) translate(600) translate(124 37)"/>
                        <g fill="#4195B9" fill-rule="nonzero">
                            <path d="M36.187 26.685c0 .352-.199.674-.514.832L18.848 35.93c-.262.13-.57.13-.832 0L1.19 27.517c-.315-.158-.514-.48-.514-.832V7.99c0-.4.256-.756.636-.882L18.138 1.5c.19-.064.397-.064.588 0L35.55 7.108c.38.126.636.482.636.882v18.695zm-1.86-.575V8.66L18.432 3.364 2.538 8.661V26.11l15.894 7.947 15.895-7.947z" transform="translate(-852 -2154) translate(128 2117) translate(600) translate(124 37) translate(0 .155)"/>
                            <path d="M19.362 35.097V14.534c0-.514-.416-.93-.93-.93s-.93.416-.93.93v20.563c0 .514.416.93.93.93s.93-.416.93-.93z" transform="translate(-852 -2154) translate(128 2117) translate(600) translate(124 37) translate(0 .155)"/>
                        </g>
                        <path fill="#66A367" fill-rule="nonzero" d="M10.015 11.607l9.739-3.464c.484-.172.736-.705.564-1.189-.172-.484-.704-.737-1.188-.564L8.154 10.294v9.068c0 .514.417.93.93.93.515 0 .931-.416.931-.93v-7.755z" transform="translate(-852 -2154) translate(128 2117) translate(600) translate(124 37)"/>
                        <path fill="#4195B9" fill-rule="nonzero" d="M18.431 13.69L1.944 7.28c-.479-.187-1.018.05-1.204.53-.186.478.05 1.018.53 1.204l16.824 6.543c.217.084.458.084.675 0l16.825-6.543c.479-.186.716-.726.53-1.204-.186-.48-.725-.717-1.204-.53L18.43 13.69z" transform="translate(-852 -2154) translate(128 2117) translate(600) translate(124 37)"/>
                    </g>
                </g>
            </g>
        </g>
    </g>
</svg>